<svg xmlns="http://www.w3.org/2000/svg" xmlns:xlink="http://www.w3.org/1999/xlink" width="500" zoomAndPan="magnify" viewBox="0 0 375 374.999991" height="500" preserveAspectRatio="xMidYMid meet" version="1.0"><defs><g/><clipPath id="ecf5166c46"><path d="M 132 57.464844 L 243 57.464844 L 243 176 L 132 176 Z M 132 57.464844 " clip-rule="nonzero"/></clipPath><clipPath id="862dd87668"><path d="M 132 199 L 243 199 L 243 317.332031 L 132 317.332031 Z M 132 199 " clip-rule="nonzero"/></clipPath><clipPath id="211e2a26c2"><path d="M 143 84.117188 L 215 84.117188 L 215 147 L 143 147 Z M 143 84.117188 " clip-rule="nonzero"/></clipPath><clipPath id="0c86504382"><path d="M 165.292969 97.210938 C 198.703125 99.480469 205.921875 100.511719 209.429688 105.253906 C 213.757812 110.824219 215.410156 124.640625 212.933594 131.445312 C 210.667969 137.632812 203.035156 143.617188 197.054688 145.472656 C 191.484375 147.121094 183.441406 145.882812 178.492188 142.789062 C 173.128906 139.492188 169.003906 131.445312 166.734375 125.054688 C 164.46875 118.867188 164.46875 110.617188 164.878906 105.253906 C 165.085938 101.542969 165.703125 98.652344 167.148438 95.765625 C 168.59375 92.878906 170.65625 90.199219 173.542969 88.34375 C 177.046875 86.074219 183.234375 84.21875 187.773438 84.835938 C 192.308594 85.453125 197.671875 88.753906 200.558594 91.640625 C 203.035156 94.117188 204.273438 97.828125 205.097656 100.304688 C 205.714844 102.160156 206.128906 102.984375 205.714844 105.046875 C 204.890625 109.792969 199.527344 122.992188 194.992188 127.734375 C 191.691406 131.242188 186.949219 132.890625 183.441406 133.714844 C 180.96875 134.335938 179.316406 134.335938 176.84375 133.714844 C 173.335938 132.890625 168.179688 130.414062 165.292969 127.320312 C 162.40625 124.226562 160.546875 119.074219 159.929688 115.566406 C 159.515625 113.089844 159.515625 111.441406 160.34375 108.964844 C 161.375 105.667969 164.054688 100.511719 167.355469 97.828125 C 170.449219 95.148438 176.015625 93.5 179.523438 93.085938 C 182 92.671875 183.855469 93.085938 186.121094 93.910156 C 189.421875 95.148438 194.578125 98.652344 196.847656 101.335938 C 198.496094 103.191406 199.117188 105.253906 199.734375 107.316406 C 200.355469 109.378906 200.972656 111.234375 200.765625 113.710938 C 200.558594 117.214844 198.910156 122.785156 196.433594 126.085938 C 193.960938 129.382812 189.421875 132.273438 185.503906 133.304688 C 181.585938 134.335938 176.222656 134.128906 172.511719 132.476562 C 168.59375 130.828125 164.671875 126.703125 162.609375 123.816406 C 161.167969 121.753906 160.546875 120.105469 160.34375 117.628906 C 159.929688 114.121094 160.34375 105.667969 161.992188 104.636719 C 162.816406 104.015625 164.054688 105.667969 164.878906 105.253906 C 166.324219 104.429688 165.703125 98.652344 167.148438 95.765625 C 168.59375 92.878906 170.859375 90.199219 173.542969 88.34375 C 176.222656 86.484375 179.316406 85.042969 182.824219 84.835938 C 186.949219 84.628906 193.339844 86.28125 196.847656 88.34375 C 199.734375 90.199219 201.796875 92.878906 203.242188 95.558594 C 204.683594 98.449219 207.160156 102.367188 205.714844 105.046875 C 203.242188 109.585938 180.347656 108.347656 177.460938 114.121094 C 174.78125 119.277344 187.359375 132.890625 184.886719 136.398438 C 182.617188 139.492188 171.6875 136.808594 165.703125 135.777344 C 160.136719 134.746094 153.742188 133.507812 150.03125 130.414062 C 146.523438 127.527344 143.84375 122.992188 143.222656 118.867188 C 142.605469 114.742188 143.429688 109.378906 145.699219 105.871094 C 147.96875 102.367188 152.710938 98.859375 156.421875 97.621094 C 159.3125 96.589844 165.292969 97.210938 165.292969 97.210938 " clip-rule="nonzero"/></clipPath><clipPath id="b8c0ccbaca"><path d="M 83.765625 170.402344 L 143.492188 170.402344 L 143.492188 211.910156 L 83.765625 211.910156 Z M 83.765625 170.402344 " clip-rule="nonzero"/></clipPath><clipPath id="31169ae454"><path d="M 119.300781 211.46875 C 91.25 205.488281 88.15625 201.984375 86.300781 199.300781 C 85.0625 197.445312 84.445312 195.796875 84.238281 193.527344 C 83.824219 190.226562 84.238281 184.863281 86.09375 181.359375 C 87.949219 177.851562 91.871094 174.347656 94.757812 172.695312 C 96.820312 171.457031 98.675781 171.046875 100.738281 170.839844 C 102.800781 170.632812 104.65625 170.425781 106.925781 171.046875 C 110.019531 171.871094 115.175781 174.964844 117.445312 177.234375 C 119.09375 178.882812 119.917969 180.121094 120.742188 182.390625 C 121.773438 185.484375 122.394531 191.464844 121.773438 194.765625 C 121.363281 197.03125 120.742188 198.476562 119.300781 200.332031 C 117.238281 203.015625 112.699219 206.519531 109.605469 207.964844 C 107.542969 208.996094 105.894531 209.40625 103.625 209.203125 C 100.324219 208.996094 94.757812 207.140625 91.871094 205.488281 C 89.808594 204.25 88.777344 203.015625 87.539062 200.953125 C 85.886719 198.0625 84.238281 192.703125 84.03125 189.402344 C 83.824219 187.132812 84.238281 185.277344 85.269531 183.214844 C 86.714844 180.328125 90.21875 175.789062 92.902344 173.726562 C 94.757812 172.285156 95.992188 171.664062 98.675781 171.253906 C 104.039062 170.425781 117.238281 172.078125 123.632812 173.519531 C 127.753906 174.550781 130.847656 175.378906 133.738281 177.234375 C 136.417969 178.882812 138.6875 180.945312 140.335938 183.421875 C 141.988281 185.894531 143.222656 188.78125 143.222656 191.875 C 143.222656 195.589844 141.574219 201.363281 139.511719 204.664062 C 137.863281 207.34375 135.386719 209.203125 132.5 210.4375 C 128.992188 211.882812 119.300781 211.46875 119.300781 211.46875 " clip-rule="nonzero"/></clipPath><clipPath id="08b148b081"><path d="M 146.007812 235.292969 L 218 235.292969 L 218 290.285156 L 146.007812 290.285156 Z M 146.007812 235.292969 " clip-rule="nonzero"/></clipPath><clipPath id="dfc95c8291"><path d="M 170.035156 250.039062 C 179.316406 254.78125 187.566406 272.3125 186.121094 274.992188 C 185.503906 276.023438 184.058594 275.816406 182.410156 275.816406 C 179.523438 275.613281 173.542969 273.960938 170.449219 271.488281 C 167.355469 269.011719 164.671875 264.0625 163.4375 260.761719 C 162.609375 258.492188 162.40625 256.84375 162.816406 254.367188 C 163.230469 250.863281 165.085938 245.5 167.765625 242.40625 C 170.449219 239.3125 175.605469 237.042969 178.90625 236.011719 C 181.378906 235.394531 183.441406 235.601562 185.503906 235.808594 C 187.566406 236.011719 189.628906 236.425781 191.691406 237.664062 C 194.578125 239.519531 198.910156 243.851562 200.765625 246.738281 C 202.003906 248.800781 202.621094 250.449219 202.828125 252.925781 C 203.035156 256.429688 201.796875 262.414062 200.355469 265.507812 C 199.324219 267.773438 198.292969 269.21875 196.433594 270.660156 C 193.753906 272.722656 188.804688 275.40625 184.679688 275.816406 C 180.761719 276.230469 175.8125 274.785156 172.304688 272.722656 C 168.796875 270.660156 165.5 266.539062 164.054688 262.824219 C 162.609375 259.113281 162.816406 253.335938 163.640625 250.039062 C 164.261719 247.5625 165.292969 245.914062 166.53125 244.261719 C 167.765625 242.40625 169.003906 240.757812 171.066406 239.519531 C 173.953125 237.664062 178.492188 235.808594 183.234375 235.808594 C 190.246094 235.808594 203.242188 237.457031 208.808594 242.820312 C 214.378906 248.179688 217.882812 261.175781 216.851562 268.597656 C 215.820312 275.199219 210.460938 282.417969 205.097656 285.925781 C 199.941406 289.429688 192.929688 289.84375 185.917969 290.050781 C 177.046875 290.253906 162.816406 288.398438 156.21875 284.6875 C 151.886719 282.210938 149 278.5 147.554688 274.582031 C 146.113281 270.660156 146.316406 265.300781 147.761719 261.382812 C 149.207031 257.460938 153.125 253.335938 156.835938 251.480469 C 160.546875 249.625 170.035156 250.039062 170.035156 250.039062 " clip-rule="nonzero"/></clipPath><clipPath id="c1dd334273"><path d="M 220.0625 170.433594 L 289.257812 170.433594 L 289.257812 210.890625 L 220.0625 210.890625 Z M 220.0625 170.433594 " clip-rule="nonzero"/></clipPath><clipPath id="8f6a82fc2c"><path d="M 241.191406 170.632812 C 280.789062 173.726562 283.675781 176.203125 285.945312 179.503906 C 288.214844 182.800781 289.246094 188.164062 289.246094 191.464844 C 289.246094 193.9375 288.832031 195.589844 287.800781 197.652344 C 286.359375 200.746094 283.058594 205.078125 279.757812 207.140625 C 276.457031 209.203125 271.714844 210.230469 267.796875 209.820312 C 263.878906 209.40625 259.339844 207.34375 256.453125 204.664062 C 253.566406 201.984375 251.503906 196.828125 250.675781 193.527344 C 250.058594 191.257812 250.058594 189.609375 250.675781 187.339844 C 251.503906 184.039062 253.566406 179.089844 256.453125 176.410156 C 259.339844 173.726562 263.878906 171.664062 267.796875 171.253906 C 271.714844 170.839844 276.457031 171.871094 279.757812 173.933594 C 283.058594 175.996094 286.359375 180.328125 287.800781 183.214844 C 288.832031 185.277344 289.246094 186.925781 289.246094 189.402344 C 289.246094 192.703125 287.59375 198.476562 285.945312 201.363281 C 284.707031 203.425781 283.675781 204.664062 281.613281 205.902344 C 278.726562 207.757812 274.601562 209.203125 269.859375 209.820312 C 263.257812 210.851562 252.121094 210.027344 244.902344 208.996094 C 239.128906 208.171875 233.351562 207.964844 229.433594 205.28125 C 225.722656 202.808594 222.628906 198.683594 221.390625 194.765625 C 220.152344 190.84375 220.773438 185.070312 222.628906 181.359375 C 224.484375 177.644531 228.816406 173.726562 232.320312 172.078125 C 235.210938 170.632812 241.191406 170.632812 241.191406 170.632812 " clip-rule="nonzero"/></clipPath></defs><g clip-path="url(#ecf5166c46)"><path fill="#1d1d1b" d="M 207.117188 118.5625 C 207.117188 120.097656 205.875 121.347656 204.339844 121.347656 L 192.050781 121.347656 L 192.050781 134.390625 C 192.050781 135.929688 190.808594 137.171875 189.277344 137.171875 L 185.011719 137.171875 C 183.476562 137.171875 182.238281 135.929688 182.238281 134.390625 L 182.238281 121.347656 L 169.945312 121.347656 C 168.414062 121.347656 167.171875 120.097656 167.171875 118.5625 L 167.171875 114.554688 C 167.171875 113.015625 168.414062 111.773438 169.945312 111.773438 L 182.238281 111.773438 L 182.238281 98.867188 C 182.238281 97.324219 183.476562 96.078125 185.011719 96.078125 L 189.277344 96.078125 C 190.808594 96.078125 192.050781 97.324219 192.050781 98.867188 L 192.050781 111.773438 L 204.339844 111.773438 C 205.875 111.773438 207.117188 113.015625 207.117188 114.554688 Z M 236.636719 99.304688 L 200.519531 63.113281 C 196.941406 59.535156 192.195312 57.558594 187.144531 57.558594 C 182.089844 57.558594 177.347656 59.535156 173.765625 63.113281 L 137.652344 99.304688 C 134.070312 102.882812 132.109375 107.644531 132.109375 112.699219 C 132.109375 117.761719 134.070312 122.523438 137.652344 126.101562 L 187.144531 175.691406 L 236.636719 126.101562 C 240.214844 122.523438 242.175781 117.761719 242.175781 112.699219 C 242.175781 107.644531 240.214844 102.882812 236.636719 99.304688 " fill-opacity="1" fill-rule="nonzero"/></g><g clip-path="url(#862dd87668)"><path fill="#1d1d1b" d="M 202.730469 267.128906 C 203.820312 268.21875 203.820312 269.976562 202.730469 271.066406 L 199.90625 273.90625 C 199.382812 274.421875 198.679688 274.722656 197.933594 274.722656 C 197.199219 274.722656 196.496094 274.421875 195.972656 273.90625 L 187.289062 265.199219 L 178.082031 274.421875 C 177.535156 274.964844 176.824219 275.238281 176.113281 275.238281 C 175.410156 275.238281 174.691406 274.964844 174.152344 274.421875 L 171.136719 271.402344 C 170.613281 270.878906 170.324219 270.175781 170.324219 269.429688 C 170.324219 268.699219 170.613281 267.988281 171.136719 267.464844 L 180.34375 258.238281 L 171.652344 249.539062 C 171.128906 249.015625 170.835938 248.300781 170.835938 247.566406 C 170.835938 246.828125 171.128906 246.121094 171.652344 245.597656 L 174.484375 242.769531 C 175.027344 242.21875 175.738281 241.953125 176.445312 241.953125 C 177.15625 241.953125 177.867188 242.21875 178.417969 242.769531 L 187.101562 251.46875 L 196.203125 242.347656 C 196.753906 241.796875 197.464844 241.53125 198.175781 241.53125 C 198.886719 241.53125 199.597656 241.796875 200.136719 242.347656 L 203.148438 245.367188 C 203.671875 245.890625 203.964844 246.59375 203.964844 247.332031 C 203.964844 248.070312 203.671875 248.78125 203.148438 249.304688 L 194.046875 258.429688 Z M 236.636719 248.902344 L 187.144531 199.316406 L 137.652344 248.902344 C 134.070312 252.488281 132.109375 257.242188 132.109375 262.304688 C 132.109375 267.367188 134.070312 272.132812 137.652344 275.710938 L 173.765625 311.902344 C 177.347656 315.480469 182.089844 317.457031 187.144531 317.457031 C 192.195312 317.457031 196.941406 315.480469 200.519531 311.902344 L 236.636719 275.710938 C 240.214844 272.132812 242.175781 267.367188 242.175781 262.304688 C 242.175781 257.242188 240.214844 252.488281 236.636719 248.902344 " fill-opacity="1" fill-rule="nonzero"/></g><path fill="#1d1d1b" d="M 275.644531 189.679688 C 275.644531 191.214844 274.40625 192.457031 272.863281 192.457031 L 242.886719 192.457031 C 241.355469 192.457031 240.113281 191.214844 240.113281 189.679688 L 240.113281 185.335938 C 240.113281 183.800781 241.355469 182.546875 242.886719 182.546875 L 272.863281 182.546875 C 274.40625 182.546875 275.644531 183.800781 275.644531 185.335938 Z M 311.300781 174.105469 L 275.175781 137.917969 C 271.605469 134.339844 266.851562 132.367188 261.796875 132.367188 C 256.746094 132.367188 252 134.339844 248.429688 137.917969 L 198.929688 187.5 L 248.429688 237.097656 C 252 240.675781 256.746094 242.648438 261.796875 242.648438 C 266.851562 242.648438 271.605469 240.675781 275.175781 237.097656 L 311.300781 200.902344 C 318.671875 193.515625 318.671875 181.492188 311.300781 174.105469 " fill-opacity="1" fill-rule="nonzero"/><path fill="#1d1d1b" d="M 129.402344 185.929688 L 103.410156 185.929688 C 101.878906 185.929688 100.636719 184.683594 100.636719 183.148438 L 100.636719 180.121094 C 100.636719 178.574219 101.878906 177.332031 103.410156 177.332031 L 129.402344 177.332031 C 130.9375 177.332031 132.179688 178.574219 132.179688 180.121094 L 132.179688 183.148438 C 132.179688 184.683594 130.9375 185.929688 129.402344 185.929688 Z M 132.179688 195.128906 C 132.179688 196.664062 130.9375 197.90625 129.402344 197.90625 L 103.410156 197.90625 C 101.878906 197.90625 100.636719 196.664062 100.636719 195.128906 L 100.636719 192.097656 C 100.636719 190.554688 101.878906 189.308594 103.410156 189.308594 L 129.402344 189.308594 C 130.9375 189.308594 132.179688 190.554688 132.179688 192.097656 Z M 125.859375 137.917969 C 122.289062 134.339844 117.542969 132.367188 112.488281 132.367188 C 107.4375 132.367188 102.683594 134.339844 99.113281 137.917969 L 62.988281 174.105469 C 55.613281 181.492188 55.613281 193.515625 62.988281 200.902344 L 99.113281 237.097656 C 102.683594 240.675781 107.4375 242.648438 112.488281 242.648438 C 117.542969 242.648438 122.289062 240.675781 125.859375 237.097656 L 175.359375 187.5 L 125.859375 137.917969 " fill-opacity="1" fill-rule="nonzero"/><g clip-path="url(#211e2a26c2)"><g clip-path="url(#0c86504382)"><path fill="#1d1d1b" d="M 134.972656 76.585938 L 221.183594 76.585938 L 221.183594 153.722656 L 134.972656 153.722656 Z M 134.972656 76.585938 " fill-opacity="1" fill-rule="nonzero"/></g></g><g clip-path="url(#b8c0ccbaca)"><g clip-path="url(#31169ae454)"><path fill="#1d1d1b" d="M 75.78125 162.589844 L 151.472656 162.589844 L 151.472656 219.71875 L 75.78125 219.71875 Z M 75.78125 162.589844 " fill-opacity="1" fill-rule="nonzero"/></g></g><g clip-path="url(#08b148b081)"><g clip-path="url(#dfc95c8291)"><path fill="#1d1d1b" d="M 139.304688 227.558594 L 225.101562 227.558594 L 225.101562 298.296875 L 139.304688 298.296875 Z M 139.304688 227.558594 " fill-opacity="1" fill-rule="nonzero"/></g></g><g clip-path="url(#c1dd334273)"><g clip-path="url(#8f6a82fc2c)"><path fill="#1d1d1b" d="M 213.140625 162.382812 L 297.496094 162.382812 L 297.496094 218.070312 L 213.140625 218.070312 Z M 213.140625 162.382812 " fill-opacity="1" fill-rule="nonzero"/></g></g><g fill="#ffffff" fill-opacity="1"><g transform="translate(175.694686, 129.301249)"><g><path d="M 17.675781 0 L 4.941406 0 C 3.625 0 2.910156 0 2.46875 -0.382812 C 2.304688 -0.550781 2.140625 -0.933594 2.140625 -1.425781 C 2.03125 -2.964844 1.8125 -5.652344 3.183594 -7.683594 L 7.519531 -13.886719 C 10.539062 -18.117188 12.296875 -20.804688 13.011719 -21.957031 C 14.492188 -24.484375 15.261719 -27.007812 15.042969 -29.367188 C 14.875 -30.6875 13.886719 -32.277344 12.132812 -32.386719 C 10.375 -32.441406 9.003906 -30.742188 8.671875 -28.765625 C 8.671875 -28.65625 8.617188 -28.4375 8.617188 -28.160156 C 8.5625 -27.832031 8.5625 -27.613281 8.5625 -27.503906 C 8.398438 -26.40625 8.125 -26.128906 7.027344 -26.019531 C 4.554688 -25.910156 2.140625 -25.691406 2.140625 -27.613281 C 2.195312 -31.839844 3.734375 -35.023438 6.640625 -37.21875 C 6.808594 -37.382812 6.972656 -37.492188 7.191406 -37.601562 C 9.386719 -38.976562 14.875 -38.921875 17.128906 -37.21875 C 24.207031 -31.894531 21.574219 -23.386719 18.335938 -18.554688 L 12.40625 -9.714844 C 11.472656 -8.289062 11.035156 -7.738281 11.363281 -7.082031 C 11.691406 -6.476562 12.40625 -6.476562 14.054688 -6.476562 L 16.25 -6.476562 C 18.058594 -6.476562 19.046875 -6.476562 19.925781 -6.367188 C 20.585938 -6.257812 20.96875 -5.875 21.023438 -5.214844 C 21.191406 -3.84375 21.191406 -2.46875 21.023438 -1.097656 C 20.914062 0.164062 19.761719 0 17.675781 0 Z M 17.675781 0 "/></g></g></g><g fill="#ffffff" fill-opacity="1"><g transform="translate(100.73364, 209.137391)"><g><path d="M 21.753906 -31.597656 L 21.753906 -27.933594 C 21.636719 -25.875 21.066406 -24.101562 19.976562 -22.726562 C 19.234375 -21.753906 18.261719 -20.894531 19.121094 -19.804688 L 19.863281 -18.949219 C 21.410156 -17.230469 22.210938 -15.226562 22.210938 -12.996094 L 22.210938 -8.472656 C 22.324219 -3.664062 17.859375 0.746094 13.050781 0.746094 L 11.449219 0.746094 C 7.042969 0.972656 2.863281 -2.976562 2.289062 -7.269531 C 1.660156 -12.535156 2.234375 -16.257812 4.464844 -19.0625 C 4.523438 -19.121094 4.636719 -19.292969 4.808594 -19.464844 C 4.980469 -19.691406 5.09375 -19.804688 5.210938 -19.921875 C 5.550781 -20.492188 5.609375 -21.066406 5.265625 -21.636719 C 5.152344 -21.867188 5.039062 -22.039062 4.867188 -22.210938 C 3.378906 -23.699219 2.691406 -25.816406 2.804688 -28.394531 C 2.917969 -29.59375 2.917969 -30.796875 2.804688 -32 C 2.632812 -35.949219 6.296875 -40.070312 10.761719 -40.242188 L 13.453125 -40.242188 C 16.429688 -40.242188 18.777344 -38.753906 20.550781 -35.835938 C 21.351562 -34.519531 21.753906 -33.085938 21.753906 -31.597656 Z M 15.511719 -28.621094 C 15.457031 -32.402344 14.195312 -34.175781 11.90625 -33.890625 C 10.589844 -33.71875 9.675781 -33.085938 9.273438 -32.058594 C 8.414062 -30.054688 8.472656 -28.105469 9.332031 -26.160156 C 10.359375 -23.929688 14.253906 -23.699219 15.226562 -26.847656 C 15.285156 -26.90625 15.339844 -27.476562 15.511719 -28.621094 Z M 15.511719 -11.21875 C 15.398438 -13.738281 15.570312 -14.367188 14.023438 -15.800781 C 12.535156 -17.117188 10.589844 -16.828125 9.730469 -15.113281 C 8.472656 -12.59375 8.414062 -10.246094 9.558594 -7.957031 C 10.53125 -6.011719 13.167969 -6.011719 14.3125 -7.328125 C 15.511719 -8.699219 15.398438 -9.101562 15.511719 -11.21875 Z M 15.511719 -11.21875 "/></g></g></g><g fill="#ffffff" fill-opacity="1"><g transform="translate(243.045356, 206.821209)"><g><path d="M 13.910156 -37.667969 L 13.910156 -3.089844 C 13.910156 0 13.851562 0 10.703125 0 C 9.160156 0 7.785156 0.113281 7.671875 -1.144531 C 7.613281 -1.773438 7.554688 -2.519531 7.554688 -3.378906 L 7.554688 -25.988281 C 7.554688 -28.792969 7.382812 -30.167969 5.722656 -30.28125 C 5.4375 -30.28125 4.0625 -30.28125 3.492188 -30.398438 C 1.890625 -30.511719 2.117188 -32.171875 2.234375 -34.175781 C 2.289062 -34.804688 2.632812 -35.207031 3.320312 -35.492188 L 4.179688 -35.777344 C 6.125 -36.464844 7.554688 -37.496094 8.414062 -38.925781 C 9.042969 -39.84375 9.902344 -40.300781 11.105469 -40.242188 L 11.277344 -40.242188 C 13.625 -40.300781 13.910156 -40.015625 13.910156 -37.667969 Z M 13.910156 -37.667969 "/></g></g></g><g fill="#ffffff" fill-opacity="1"><g transform="translate(259.874614, 206.821209)"><g><path d="M 2.234375 -19.921875 L 2.234375 -31.371094 C 2.289062 -36.179688 6.011719 -40.242188 11.507812 -40.242188 C 17.171875 -40.242188 20.894531 -35.664062 20.609375 -30.96875 C 20.609375 -29.9375 20.207031 -29.480469 19.121094 -29.421875 L 15.742188 -29.421875 C 14.65625 -29.367188 14.023438 -29.882812 13.796875 -30.855469 C 13.566406 -31.769531 13.167969 -33.144531 11.734375 -33.375 C 10.359375 -33.601562 9.214844 -32.402344 8.871094 -31.140625 C 8.472656 -29.652344 8.414062 -27.878906 8.699219 -25.816406 C 8.816406 -24.957031 9.386719 -24.558594 10.304688 -24.730469 C 11.390625 -24.902344 12.59375 -24.957031 13.910156 -24.957031 C 18.605469 -24.785156 20.609375 -20.207031 20.609375 -17.34375 C 20.722656 -6.640625 21.351562 -5.09375 18.03125 -1.890625 C 14.769531 1.316406 8.53125 1.660156 4.980469 -1.832031 C 1.375 -5.324219 2.234375 -5.894531 2.234375 -19.921875 Z M 13.910156 -12.707031 C 13.910156 -16.027344 14.023438 -16.371094 13.339844 -17.804688 C 12.480469 -19.578125 9.789062 -19.519531 9.101562 -17.632812 C 8.929688 -17.289062 8.871094 -16.886719 8.816406 -16.601562 C 8.472656 -14.65625 8.414062 -12.191406 8.699219 -9.214844 C 8.816406 -7.613281 9.960938 -6.410156 11.105469 -6.355469 C 12.25 -6.296875 13.851562 -7.441406 13.851562 -9.617188 C 13.910156 -9.730469 13.910156 -10.820312 13.910156 -12.707031 Z M 13.910156 -12.707031 "/></g></g></g><g fill="#ffffff" fill-opacity="1"><g transform="translate(173.666302, 280.426439)"><g><path d="M 25.027344 -3.214844 L 25.027344 -38.125 C 25.027344 -39.46875 25.144531 -40.929688 23.914062 -40.988281 C 23.039062 -41.105469 22.101562 -41.105469 21.109375 -41.105469 C 18.242188 -41.105469 18.125 -40.988281 18.125 -38.125 C 18.125 -38.359375 18.125 -34.148438 18.066406 -25.433594 C 18.066406 -23.503906 18.125 -23.332031 17.777344 -22.21875 C 17.660156 -21.519531 16.78125 -21.402344 16.488281 -22.101562 C 16.371094 -22.335938 16.253906 -22.628906 16.136719 -22.980469 C 15.554688 -25.085938 13.390625 -32.277344 12.453125 -35.375 C 12.335938 -35.902344 12.105469 -36.660156 11.8125 -37.597656 C 11.460938 -38.648438 11.226562 -39.410156 11.109375 -39.820312 C 10.875 -40.636719 10.347656 -41.046875 9.648438 -41.046875 L 4.09375 -41.046875 C 2.75 -40.988281 2.863281 -39.585938 2.863281 -37.773438 L 2.863281 -3.566406 C 2.863281 -1.695312 2.632812 -0.234375 4.445312 0 L 6.492188 0 C 9.765625 0 9.824219 0 9.824219 -3.15625 L 9.824219 -15.847656 C 9.824219 -17.074219 9.882812 -17.890625 10.058594 -18.359375 C 10.347656 -19.0625 11.109375 -19.238281 11.460938 -18.535156 L 12.164062 -16.605469 C 12.046875 -16.898438 13.507812 -12.453125 16.488281 -3.15625 L 16.78125 -2.339844 C 16.957031 -1.929688 17.015625 -1.636719 17.074219 -1.402344 C 17.660156 0.410156 20.347656 0 21.75 0 C 24.851562 0 25.027344 -0.117188 25.027344 -3.214844 Z M 25.027344 -3.214844 "/></g></g></g></svg>